<svg xmlns="http://www.w3.org/2000/svg" viewBox="0 0 183.62 37.38"><g id="Layer_2" data-name="Layer 2"><g id="Layer_1-2" data-name="Layer 1"><path d="M183.62,3.38c-1.75.79-2.56,1.44-3.4,1.49-8.62.5-14.43,5.29-18.94,12.18-2.43,3.72-5.4,6.66-10.13,7.36-2.86.42-4-.49-4-3.38.08-5.33-.17-10.67.17-16,.07-1.24,1.89-3.37,3-3.39,10-.27,20-.2,30-.1C181.14,1.57,182,2.47,183.62,3.38Z"></path><path d="M182.69,13.64c0,6.88.11,13.49-.13,20.08,0,.88-1.79,2.4-2.78,2.42-9.78.19-19.57.17-29.35,0-1.16,0-2.31-1-3.19-2.51a21.89,21.89,0,0,1,3.24-.8c7.25-.72,12.71-4.21,16.76-10.24C170.69,17.5,174.39,12.5,182.69,13.64Z"></path><path d="M135.73,24.37c0,1.83,0,3.66,0,5.48,0,3.79,1,8.77-5.78,5-.58-.32-1.82.83-2.69.73-2.77-.3-7.2-.06-7.89-1.5a11.18,11.18,0,0,1,.37-9.11c1.48-2.58,5.13-3.87,7.7-5.9,1-.82,2.27-2,2.42-3.17.12-.92-1.19-2.77-2-2.87-1.15-.14-2.41,1.12-3.7,1.53-1.65.53-3.38.81-5.08,1.19.49-1.6.54-3.63,1.57-4.72,2.88-3,6.54-3.57,10.52-2.11,3.79,1.39,4.7,4.32,4.6,7.92C135.67,19.39,135.73,21.88,135.73,24.37Zm-5.91-1.89c-3.75,1.84-6.6,3.49-6.26,7.42,0,.66,2.47,1.87,3.41,1.58C131.41,30.12,130.24,26.56,129.82,22.48Z"></path><path d="M52.12,35.41c-4.45.27-8.69.81-12.91.69-3.84-.12-6.66-4.64-4.51-8s5.86-5.87,8.85-8.79c1.08-1.05,2.45-2.09,2.88-3.4.23-.7-1.35-2.85-2-2.79-1.38.11-2.64,1.34-4,1.87A36.05,36.05,0,0,1,36.13,16c.12-1.48-.21-4,.44-4.28,3.14-1.4,6.54-3,9.85-3,3.74,0,5.67,3.11,5.75,6.88.11,6,.07,11.95.09,17.92C52.26,34.18,52.17,34.81,52.12,35.41ZM46.37,23.34l-1.85-1.13-4.35,7.66c1.16.54,2.52,1.78,3.44,1.51C48.21,30,46.43,26.36,46.37,23.34Z"></path><path d="M14.66,16.11a33.28,33.28,0,0,0-4.58-2.22,16,16,0,0,0-3.89-.32c.17,1.33-.14,3.12.61,3.91,2.14,2.28,5,3.93,7.06,6.25,3.26,3.62,2.65,9-.9,11.4C9.09,37.72,2.78,36.36.79,32.34.31,31.37.66,30,.63,28.8c1.32.19,3.11-.1,3.85.66,1.79,1.83,3.66,3.72,5.58,1.15.6-.81-1.31-3.85-2.53-5.53-.93-1.28-2.68-1.93-3.91-3C1.07,19.71-1,17.1.48,13.33c1.35-3.57,4.16-5.13,7.8-5S14.06,10.5,14.66,16.11Z"></path><path d="M98.87,16.05c-2-.74-3.44-1.41-5-1.83a38.68,38.68,0,0,0-4.33-.7c.41,1.56.36,3.51,1.31,4.59,1.61,1.84,4,2.95,5.76,4.7,2.58,2.58,4.21,5.64,2.39,9.41-2,4.05-5.61,4.41-9.37,3.87s-5.81-2.82-6.27-8.28a46.69,46.69,0,0,0,5.46,2.45,31,31,0,0,0,4.75.67c-.28-1.49-.07-3.4-.93-4.38-1.73-2-4.08-3.37-6.1-5.1-3-2.63-4-6.38-1.9-9.39,1.37-2,4.88-3.48,7.46-3.52C95.7,8.49,98.67,10.65,98.87,16.05Z"></path><path d="M56.36,12.12,59.83,2c1.68.6,3.78.76,4.94,1.9,1.41,1.38,2.21,3.5,2.92,5.43a5.31,5.31,0,0,1-.15,3.38c-.71,1.92-2.19,3.64-2.53,5.58a24.78,24.78,0,0,0,0,8c.29,1.82,1.61,3.48,2.4,5.24.44,1,1.21,2.14,1,3a3.31,3.31,0,0,1-2.49,1.67c-4,.34-6.43-1.61-6.73-5.61-.25-3.49.09-7-.13-10.5-.17-2.73,1.43-6.18-2.57-7.72C56.18,12.23,56.14,11.46,56.36,12.12Z"></path><path d="M23.36,1.61c2.43-.58,3.2.65,4.5,3.84,1.66,4.07,2.47,6.63,0,10.91-1.72,3-.49,7.78-.22,11.75.08,1.16,1.49,2.19,2.1,3.37s1.23,2.3,1.06,3.33c-.1.61-1.72,1.3-2.69,1.37-4.17.27-6.09-2.18-6.32-6-.21-3.47,0-7-.11-10.44C21.6,17.1,22.82,14,19.2,12.39c-.38-.17-.5-1.88-.16-2.62C20.18,7.29,21.58,4.93,23.36,1.61Z"></path><path d="M110.17,37.38c-1.64-2.23-4-4-4.34-6.19-.71-3.88,0-8-.41-12-.22-2.24-2.39-4.55-2-6.53.67-3.81,2.51-7.41,3.86-11.1l3.41,1.27C107.66,7.09,117,8.44,113,13a7.41,7.41,0,0,0-2,3.87,63.35,63.35,0,0,0,0,10.49c.11,1.37,1.32,2.65,2,4,.59,1.16,1.68,2.41,1.52,3.48C114.31,35.57,112.48,36.06,110.17,37.38Z"></path><path d="M78.14,22.47A86.3,86.3,0,0,1,78,32.39c-.15,1.31-1.69,2.45-2.6,3.67-.82-1.14-2.3-2.26-2.34-3.43-.23-6.62-.25-13.25,0-19.87,0-1.26,1.69-2.47,2.59-3.7.83,1.32,2.19,2.58,2.36,4A84.66,84.66,0,0,1,78.14,22.47Z"></path><path d="M75.56,0C76.85,2.15,78,3.19,77.94,4.22c0,.72-1.55,2-2.4,2s-2.36-1.27-2.37-2C73.15,3.18,74.26,2.14,75.56,0Z"></path></g></g></svg>