<svg xmlns="http://www.w3.org/2000/svg" viewBox="0 0 198.96 45.68"><g id="Layer_2" data-name="Layer 2"><g id="Layer_1-2" data-name="Layer 1"><path d="M147.66,44.78V1.59c6.55-1.91,7.17-1.6,9,4.22a82.39,82.39,0,0,0,6,15V1.06H170v43.2c-7.21,2-7.86,1.65-9.9-4.92a52.28,52.28,0,0,0-4.89-11.69V44.78Z"></path><path d="M64.7,44.91H57.35V1c4.27,0,8.66-.89,12.41.28,3,.93,6.61,3.89,7.58,6.75,2,5.79,2,12-1.53,17.75a7.38,7.38,0,0,0-.67,5c1,4.51,2.42,8.92,3.66,13.35-6.4,2.12-7.12,1.83-8.77-3.77-.93-3.18-1.61-6.44-2.57-9.62-1-3.39-1.34-5.92,1.47-9.33,2-2.45,1.16-7.49,1-11.34,0-.84-2.7-1.55-5.2-2.87Z"></path><path d="M25.58,23.05c0-4-.13-8,0-12C25.89,4.48,30.12.09,36.06,0c6.41-.09,10.59,4,10.76,11.11q.28,11.73,0,23.45c-.15,6.72-4.27,11-10.29,11.12S25.9,41.32,25.61,34.53C25.45,30.71,25.58,26.88,25.58,23.05ZM39.3,22.7a103.81,103.81,0,0,0-.15-11.44c-.14-1.3-2-2.41-3.1-3.6-.87,1.21-2.47,2.4-2.51,3.64-.24,7.63-.25,15.28,0,22.91.05,1.29,1.83,2.53,2.81,3.8,1-1.29,2.67-2.5,2.81-3.87A111.82,111.82,0,0,0,39.3,22.7Z"></path><path d="M116.5,1.23c7.5-1,7.52-1,7.53,5.62,0,6.16-.52,12.38.18,18.46.49,4.24-3.35,12.1,3,12,5.91-.07,2.47-8,2.8-12.3.6-7.76.17-15.6.17-23.87h6.91a33.34,33.34,0,0,1,.41,3.65c0,10.16.09,20.32,0,30.48a10.47,10.47,0,0,1-20.94.07C116.41,24.06,116.5,12.77,116.5,1.23Z"></path><path d="M188.37,8.07V18l6.63.89v6.86l-6.47.58v11l10.43.53v6.72H180.88V1h18V8.07Z"></path><path d="M0,1H18.12V8H7.79V18l6.33.85v6.88l-6.56.67V44.66H0Z"></path><path d="M93.38,44.86V8.61l-6.15-.83C85.69,1,85.92.68,92.74.67c4.65,0,9.29,0,14.36,0v7L101,8.53V44.86Z"></path></g></g></svg>